<svg xmlns="http://www.w3.org/2000/svg" xmlns:xlink="http://www.w3.org/1999/xlink" viewBox="0 0 24 24" fill="#070809">
  <path d="M12 2C6.4889971 2 2 6.4889971 2 12C2 17.511003 6.4889971 22 12 22C17.511003 22 22 17.511003 22 12C22 6.4889971 17.511003 2 12 2 z M 12 4C16.430123 4 20 7.5698774 20 12C20 16.430123 16.430123 20 12 20C10.935049 20 9.9220303 19.789005 8.9941406 19.414062L10.683594 17.722656C12.053633 18.046243 13.639278 18.023906 15.261719 16.962891L15.261719 16.960938C16.378148 16.230463 17.284566 15.148128 17.708984 13.828125C18.169213 12.396433 18.043671 10.99537 17.580078 9.8144531L17.021484 8.3925781L13.707031 11.707031C13.308104 12.105958 12.693849 12.105958 12.294922 11.707031C11.895995 11.308104 11.895995 10.691896 12.294922 10.292969L15.607422 6.9785156L14.185547 6.421875C13.594823 6.1902071 12.949519 6.0416264 12.271484 6.0097656C11.59345 5.9779049 10.883261 6.0615994 10.166016 6.2929688C8.8448253 6.7194366 7.7607694 7.6277135 7.03125 8.7480469C5.9764866 10.366986 5.9541907 11.948729 6.2773438 13.316406L4.5859375 15.007812C4.2105607 14.079464 4 13.0656 4 12C4 7.5698774 7.5698774 4 12 4 z M 11.6875 8.0703125L10.880859 8.8789062C9.7177867 10.041979 9.7177867 11.958021 10.880859 13.121094L11.171875 13.414062L11.587891 13.414062L11.564453 13.404297C11.571869 13.408109 11.580584 13.407981 11.587891 13.412109L11.587891 13.414062L11.591797 13.414062C12.734818 14.05764 14.154924 14.089217 15.123047 13.121094L15.931641 12.3125C15.907501 12.609228 15.90665 12.899596 15.804688 13.216797C15.53926 14.042315 14.936899 14.783599 14.167969 15.287109C12.756655 16.210056 11.71865 16.134219 10.646484 15.746094L10.048828 15.529297L7.1894531 18.388672C6.5923135 17.93899 6.0611241 17.409548 5.6113281 16.8125L8.4726562 13.951172L8.2558594 13.353516C7.8679451 12.28361 7.7895499 11.248071 8.7070312 9.8398438L8.7070312 9.8378906C9.2095119 9.0662208 9.9504867 8.4647978 10.779297 8.1972656C11.097795 8.0945241 11.389511 8.0944288 11.6875 8.0703125 z" fill="#070809" />
</svg>